<svg width="44" height="44" viewBox="0 0 44 44" fill="none" xmlns="http://www.w3.org/2000/svg">
<path d="M8.09892 0.211926C8.16377 0.211278 8.22861 0.210629 8.29542 0.209961C8.52107 0.251656 8.59194 0.311899 8.72773 0.494891C8.80921 0.749913 8.82139 0.981414 8.81976 1.24815C8.81936 1.36569 8.81936 1.36569 8.81894 1.48559C8.81789 1.60734 8.81789 1.60734 8.81681 1.73155C8.81643 1.81401 8.81606 1.89648 8.81567 1.98144C8.81468 2.1846 8.8133 2.38776 8.81157 2.59092C8.89047 2.58703 8.96936 2.58314 9.05065 2.57913C10.0101 2.55132 10.0101 2.55132 10.2998 2.73765C10.5579 2.99579 10.6483 3.15492 10.6751 3.52292C10.6742 3.62303 10.6734 3.72313 10.6725 3.82627C10.6719 3.93489 10.6714 4.04351 10.6708 4.15542C10.6694 4.26972 10.668 4.38402 10.6666 4.49832C10.6657 4.61392 10.665 4.72953 10.6643 4.84514C10.6623 5.1278 10.6595 5.41042 10.6561 5.69306C10.7225 5.69086 10.7888 5.68866 10.8572 5.6864C11.1587 5.67767 11.4602 5.67223 11.7617 5.66685C11.8662 5.66334 11.9707 5.65983 12.0783 5.65621C12.9425 5.64463 12.9425 5.64463 13.1988 5.88563C13.3829 6.18326 13.3953 6.35524 13.339 6.69915C13.2227 6.88357 13.2227 6.88357 13.0036 7.03452C12.7136 7.07855 12.4275 7.06526 12.1349 7.05501C12.0465 7.05331 11.9582 7.05162 11.8671 7.04988C11.675 7.04617 11.483 7.04178 11.291 7.03681C10.8819 7.02705 10.4728 7.02331 10.0636 7.01922C9.30185 7.01155 8.54036 7.00145 7.77887 6.98079C7.24892 6.96664 6.71938 6.96035 6.18925 6.95914C5.98785 6.95722 5.78645 6.95243 5.58519 6.94465C5.30186 6.93404 5.02008 6.93352 4.73659 6.93514C4.65449 6.92967 4.5724 6.9242 4.48782 6.91856C4.20221 6.9134 4.20221 6.9134 3.78109 7.11836C3.28307 7.90689 3.28307 7.90689 2.775 8.71134C14.9211 8.71134 27.0672 8.71134 39.5813 8.71134C39.2493 8.21333 38.9173 7.71531 38.5753 7.2022C38.5753 7.14686 38.5753 7.09153 38.5753 7.03452C38.5252 7.03461 38.4751 7.03471 38.4235 7.03481C35.4571 7.04043 32.4907 7.04475 29.5243 7.04736C29.1683 7.04768 28.8123 7.048 28.4564 7.04833C28.3855 7.0484 28.3146 7.04847 28.2416 7.04853C27.0933 7.04963 25.9449 7.05161 24.7966 7.05392C23.6187 7.05627 22.4409 7.05767 21.2631 7.05818C20.536 7.05853 19.8089 7.05962 19.0818 7.06166C18.5835 7.06299 18.0853 7.06339 17.5871 7.06307C17.2994 7.0629 17.0117 7.06316 16.724 7.0645C16.4124 7.06574 16.1009 7.06545 15.7893 7.06476C15.6979 7.0655 15.6066 7.06623 15.5125 7.06698C15.4291 7.06648 15.3458 7.06598 15.26 7.06547C15.152 7.06561 15.152 7.06561 15.0419 7.06576C14.801 7.02691 14.6873 6.95194 14.5128 6.78299C14.4396 6.49551 14.4013 6.28895 14.4866 6.00222C14.6219 5.8283 14.7283 5.77627 14.932 5.69306C15.1274 5.67194 15.1274 5.67194 15.3479 5.67172C15.4321 5.67123 15.5163 5.67074 15.6031 5.67024C15.6955 5.67055 15.7878 5.67087 15.883 5.6712C15.9813 5.67088 16.0795 5.67056 16.1807 5.67023C16.4535 5.66951 16.7263 5.66955 16.9991 5.66991C17.2932 5.67011 17.5874 5.66936 17.8816 5.66873C18.4579 5.66766 19.0342 5.66751 19.6105 5.66771C20.0789 5.66786 20.5472 5.66771 21.0156 5.66735C21.0822 5.6673 21.1488 5.66725 21.2175 5.6672C21.3528 5.6671 21.4881 5.667 21.6234 5.66689C22.893 5.66598 24.1625 5.66616 25.432 5.66668C26.5938 5.66711 27.7557 5.66617 28.9175 5.66457C30.11 5.66295 31.3025 5.66225 32.4951 5.66257C33.1647 5.66273 33.8344 5.66252 34.5041 5.66134C35.0742 5.66034 35.6443 5.66022 36.2144 5.66123C36.5053 5.66173 36.7962 5.66182 37.0872 5.66081C37.4024 5.65994 37.7176 5.66061 38.0328 5.66168C38.125 5.66106 38.2172 5.66044 38.3121 5.65981C39.0819 5.66531 39.0819 5.66531 39.4137 5.94458C39.894 6.45651 40.2732 7.08039 40.6608 7.66333C40.7174 7.74557 40.7741 7.82782 40.8324 7.91256C41.1659 8.41546 41.3444 8.77374 41.342 9.38208C41.2452 9.67243 41.16 9.82679 40.9265 10.0229C40.5478 10.1917 40.1949 10.1696 39.7848 10.1652C39.6956 10.1652 39.6064 10.1653 39.5145 10.1653C39.2201 10.1651 38.9257 10.1632 38.6313 10.1612C38.427 10.1607 38.2227 10.1604 38.0184 10.1601C37.481 10.1592 36.9436 10.1567 36.4061 10.1539C35.8576 10.1513 35.3091 10.1502 34.7606 10.1489C33.6846 10.1462 32.6086 10.1418 31.5326 10.1366C31.5602 11.4094 31.5879 12.6821 31.6164 13.9934C32.1611 14.2337 32.7058 14.4741 33.267 14.7217C33.5975 14.8678 33.928 15.014 34.2584 15.1603C34.7768 15.3897 35.2954 15.6189 35.8144 15.8471C36.0404 15.9466 36.2662 16.0465 36.492 16.1466C36.6442 16.2139 36.7966 16.2807 36.9491 16.3474C37.0396 16.3876 37.1301 16.4278 37.2233 16.4693C37.3009 16.5035 37.3785 16.5377 37.4585 16.5729C37.649 16.6741 37.7694 16.7608 37.9045 16.9278C37.9978 17.2343 38.0151 17.3734 37.8783 17.6666C37.7368 17.8501 37.7368 17.8501 37.5692 17.9339C37.0266 17.9899 36.6533 17.8219 36.1733 17.5995C36.096 17.5647 36.0187 17.53 35.939 17.4941C35.7741 17.4198 35.6094 17.345 35.4449 17.2697C35.1892 17.1527 34.9329 17.037 34.6764 16.9217C34.1869 16.7013 33.6981 16.4794 33.2094 16.2571C32.7924 16.0674 32.375 15.8787 31.957 15.6911C31.876 15.6537 31.7949 15.6163 31.7114 15.5777C31.6378 15.5447 31.5642 15.5116 31.4884 15.4776C31.4272 15.4496 31.366 15.4217 31.303 15.3929C30.7469 15.2226 30.3425 15.4238 29.842 15.6545C29.7672 15.688 29.6924 15.7216 29.6154 15.7561C29.3702 15.8664 29.1257 15.9779 28.8811 16.0894C28.7098 16.1666 28.5384 16.2438 28.367 16.3209C28.0203 16.4769 27.6738 16.6333 27.3275 16.7902C26.7152 17.0672 26.1013 17.3406 25.4869 17.6132C25.3072 17.6929 25.1275 17.7728 24.9478 17.8528C23.8057 18.3605 22.6613 18.8627 21.5166 19.3645C21.4465 19.3952 21.3764 19.4259 21.3041 19.4576C21.1742 19.5146 21.0442 19.5715 20.9142 19.6284C20.8551 19.6543 20.7959 19.6802 20.735 19.7069C20.6776 19.732 20.6203 19.7571 20.5612 19.7829C20.4321 19.8399 20.3035 19.8979 20.1751 19.9564C20.1074 19.9872 20.0397 20.018 19.9699 20.0497C19.9083 20.0779 19.8467 20.1062 19.7832 20.1353C19.6271 20.1976 19.6271 20.1976 19.4594 20.1976C19.6254 20.5573 19.7914 20.917 19.9625 21.2875C20.7822 20.9834 21.576 20.6403 22.3713 20.2781C22.7404 20.11 23.11 19.943 23.4796 19.7761C23.5559 19.7416 23.6322 19.7071 23.7109 19.6716C24.6001 19.2706 25.4938 18.8798 26.3878 18.4894C27.134 18.1635 27.8792 17.8359 28.6197 17.4973C28.6804 17.4696 28.7411 17.4419 28.8037 17.4134C29.0859 17.2845 29.3679 17.1549 29.6493 17.0242C29.7471 16.9793 29.845 16.9344 29.9458 16.8882C30.0302 16.849 30.1146 16.8099 30.2015 16.7696C30.6607 16.5919 30.9426 16.5572 31.4057 16.7534C31.491 16.7919 31.491 16.7919 31.5781 16.8312C31.6396 16.8577 31.7011 16.8843 31.7645 16.9116C31.9673 16.9996 32.1691 17.0894 32.371 17.1793C32.5112 17.2408 32.6514 17.3023 32.7917 17.3637C33.248 17.564 33.7029 17.7673 34.1579 17.9706C34.3243 18.0448 34.4908 18.119 34.6573 18.1931C35.0746 18.379 35.4917 18.5651 35.9088 18.7513C36.5163 19.0223 37.1239 19.2931 37.7316 19.5636C37.7922 19.5905 37.8528 19.6175 37.9152 19.6453C39.1654 20.2015 40.4205 20.7465 41.6774 21.2875C41.8757 21.0892 41.952 20.9043 42.0651 20.6483C42.1025 20.5642 42.1399 20.4801 42.1785 20.3935C42.2068 20.3288 42.2351 20.2642 42.2643 20.1976C42.1655 20.1672 42.0667 20.1369 41.9649 20.1056C41.4387 19.9298 40.9339 19.7059 40.4278 19.4799C40.2615 19.4059 40.0947 19.3333 39.9278 19.2608C39.8213 19.2134 39.7147 19.166 39.6082 19.1185C39.5125 19.0762 39.4167 19.0339 39.3181 18.9903C39.0772 18.8555 38.9638 18.7574 38.8268 18.5208C38.8019 18.2855 38.8407 18.0755 38.9106 17.8501C39.0866 17.6415 39.1893 17.6055 39.458 17.5724C39.8692 17.6093 40.2004 17.7652 40.575 17.9323C40.6535 17.9666 40.732 18.001 40.8129 18.0364C40.9784 18.1092 41.1437 18.1824 41.3089 18.2561C41.5612 18.3684 41.8144 18.4785 42.0678 18.5884C42.2287 18.6595 42.3897 18.7307 42.5505 18.8021C42.6261 18.8348 42.7016 18.8675 42.7795 18.9011C43.1735 19.0791 43.4661 19.222 43.6896 19.6107C43.8482 20.2587 43.5651 20.8598 43.3018 21.4395C43.266 21.5242 43.2303 21.6089 43.1934 21.6961C42.9797 22.1794 42.804 22.5172 42.3481 22.7967C41.965 22.8955 41.7408 22.8746 41.3774 22.7243C41.234 22.6654 41.234 22.6654 41.0877 22.6052C40.9767 22.5575 40.8659 22.5095 40.7551 22.4613C40.6933 22.4345 40.6314 22.4077 40.5677 22.3801C40.1296 22.1894 39.6931 21.9949 39.257 21.7994C38.839 21.6119 38.4205 21.4254 38.0021 21.2388C37.9169 21.2007 37.8316 21.1626 37.7437 21.1234C37.184 20.8738 36.6234 20.626 36.062 20.38C35.9889 20.348 35.9157 20.3159 35.8404 20.2829C35.4818 20.1257 35.1229 19.9693 34.7636 19.8137C34.0985 19.5248 33.4404 19.2281 32.7909 18.9056C32.6152 18.8201 32.4395 18.7348 32.2637 18.6497C32.1044 18.5709 31.9476 18.4883 31.7905 18.4052C31.2611 18.148 31.2611 18.148 30.6859 18.1426C30.3965 18.2494 30.1303 18.38 29.8558 18.5208C29.6802 18.6005 29.5037 18.6777 29.327 18.755C29.0626 18.8713 28.7998 18.9913 28.5369 19.111C28.1675 19.2792 27.7976 19.4463 27.4276 19.6133C27.3512 19.6478 27.2749 19.6824 27.1962 19.7179C26.2418 20.1483 25.2829 20.5683 24.3235 20.9874C24.182 21.0493 24.0406 21.1111 23.8991 21.1729C23.8298 21.2032 23.7606 21.2335 23.6892 21.2647C23.2034 21.4773 22.7191 21.6932 22.2354 21.9105C22.0395 21.9981 21.8437 22.0857 21.6478 22.1732C21.525 22.2283 21.4023 22.2837 21.2797 22.3393C21.1114 22.4157 20.9428 22.4912 20.774 22.5665C20.6796 22.6091 20.5851 22.6517 20.4877 22.6957C20.0891 22.8428 19.7664 22.9297 19.3599 22.7862C18.8255 22.43 18.6345 21.9016 18.3957 21.3295C18.3619 21.2509 18.3281 21.1723 18.2933 21.0914C17.8641 20.0776 17.8641 20.0776 18.118 19.443C18.4195 19.1616 18.7355 19.0019 19.1116 18.8375C19.1964 18.8001 19.1964 18.8001 19.2829 18.7619C19.4707 18.6792 19.659 18.5974 19.8472 18.5155C19.9819 18.4564 20.1166 18.3972 20.2512 18.338C20.5379 18.2118 20.8248 18.0861 21.1118 17.9605C21.7712 17.672 22.4293 17.3806 23.0875 17.0895C23.3119 16.9902 23.5365 16.8911 23.761 16.792C24.5701 16.4347 25.3789 16.0765 26.187 15.717C26.272 15.6792 26.3569 15.6414 26.4445 15.6025C26.8537 15.4204 27.2629 15.2382 27.6721 15.0559C27.8215 14.9893 27.9709 14.9228 28.1203 14.8563C28.2178 14.8128 28.2178 14.8128 28.3173 14.7684C28.9116 14.504 29.5092 14.2497 30.1073 13.9934C30.1349 12.7206 30.1626 11.4479 30.1911 10.1366C25.626 10.1366 21.0608 10.1366 16.3573 10.1366C16.9106 11.4924 17.464 12.8481 18.0341 14.2449C18.5654 15.6262 18.5654 15.6262 18.4533 16.2571C18.2474 16.6765 17.9505 16.9696 17.5311 17.1793C17.3136 17.1871 17.0984 17.1899 16.8809 17.1888C16.8139 17.1889 16.7468 17.1889 16.6777 17.1889C16.4554 17.1888 16.2331 17.1882 16.0108 17.1875C15.8569 17.1874 15.703 17.1872 15.5491 17.1871C15.1436 17.1868 14.7381 17.186 14.3326 17.1851C13.919 17.1842 13.5054 17.1838 13.0917 17.1834C12.2799 17.1825 11.468 17.181 10.6561 17.1793C10.6561 17.7603 10.6561 18.3414 10.6561 18.94C10.7944 18.9677 10.9328 18.9953 11.0753 19.0238C11.2273 19.1129 11.2273 19.1129 11.3268 19.2754C11.3808 19.7001 11.3808 19.7001 11.3268 19.9461C11.1329 20.1557 11.1329 20.1557 10.9076 20.2815C10.8246 20.2815 10.7416 20.2815 10.6561 20.2815C10.6561 20.9178 10.6561 21.5542 10.6561 22.2098C10.7944 22.2375 10.9328 22.2651 11.0753 22.2936C11.2273 22.3827 11.2273 22.3827 11.3268 22.5452C11.3808 22.9699 11.3808 22.9699 11.3268 23.2159C11.1329 23.4255 11.1329 23.4255 10.9076 23.5513C10.8246 23.5513 10.7416 23.5513 10.6561 23.5513C10.6561 24.1876 10.6561 24.824 10.6561 25.4796C10.7944 25.5073 10.9328 25.535 11.0753 25.5635C11.2273 25.6525 11.2273 25.6525 11.3268 25.815C11.3808 26.2398 11.3808 26.2398 11.3268 26.4857C11.1329 26.6953 11.1329 26.6953 10.9076 26.8211C10.8246 26.8211 10.7416 26.8211 10.6561 26.8211C10.6561 27.4574 10.6561 28.0938 10.6561 28.7494C10.7944 28.7771 10.9328 28.8048 11.0753 28.8333C11.2273 28.9224 11.2273 28.9224 11.3268 29.0848C11.3808 29.5096 11.3808 29.5096 11.3268 29.7555C11.1329 29.9651 11.1329 29.9651 10.9076 30.0909C10.8246 30.0909 10.7416 30.0909 10.6561 30.0909C10.6561 30.7272 10.6561 31.3636 10.6561 32.0192C10.7944 32.0469 10.9328 32.0746 11.0753 32.1031C11.2273 32.1922 11.2273 32.1922 11.3268 32.3546C11.3808 32.7794 11.3808 32.7794 11.3268 33.0253C11.1329 33.2349 11.1329 33.2349 10.9076 33.3607C10.8246 33.3607 10.7416 33.3607 10.6561 33.3607C10.6561 33.9971 10.6561 34.6334 10.6561 35.2891C10.7944 35.3167 10.9328 35.3444 11.0753 35.3729C11.2273 35.462 11.2273 35.462 11.3268 35.6244C11.3808 36.0492 11.3808 36.0492 11.3268 36.2952C11.1329 36.5048 11.1329 36.5048 10.9076 36.6305C10.8246 36.6305 10.7416 36.6305 10.6561 36.6305C10.6561 36.9902 10.6561 37.3499 10.6561 37.7205C10.7779 37.7187 10.8997 37.7169 11.0252 37.7151C11.478 37.7091 11.9308 37.7052 12.3837 37.702C12.5795 37.7003 12.7753 37.6981 12.9711 37.6952C13.2529 37.6911 13.5347 37.6892 13.8165 37.6877C13.9038 37.686 13.991 37.6842 14.081 37.6825C14.5877 37.6823 14.8842 37.7131 15.2674 38.0558C15.5705 38.5105 15.5333 38.9876 15.5359 39.5172C15.5364 39.5933 15.5369 39.6695 15.5374 39.748C15.5381 39.9088 15.5387 40.0696 15.539 40.2304C15.5398 40.4753 15.5424 40.7202 15.5451 40.965C15.5456 41.1217 15.5461 41.2784 15.5464 41.435C15.5474 41.5077 15.5485 41.5804 15.5495 41.6553C15.5475 42.1987 15.4873 42.6158 15.0852 43.0161C14.7894 43.2083 14.6106 43.2131 14.2594 43.2149C14.2019 43.2156 14.1443 43.2163 14.0849 43.2171C13.8955 43.219 13.7062 43.2184 13.5168 43.2176C13.3848 43.2181 13.2527 43.2186 13.1207 43.2192C12.8443 43.2201 12.568 43.2197 12.2917 43.2185C11.9376 43.217 11.5837 43.219 11.2297 43.222C10.9571 43.2238 10.6846 43.2237 10.4121 43.223C10.2815 43.2229 10.151 43.2235 10.0205 43.2247C9.83801 43.2262 9.65574 43.225 9.47328 43.2231C9.31767 43.2229 9.31767 43.2229 9.15891 43.2228C8.89541 43.1701 8.89541 43.1701 8.69129 42.9762C8.56005 42.7509 8.56005 42.7509 8.56529 42.447C8.66847 42.0755 8.66847 42.0755 8.89541 41.9125C9.12619 41.8823 9.12619 41.8823 9.40884 41.884C9.51457 41.884 9.6203 41.884 9.72924 41.884C9.84463 41.8853 9.96002 41.8866 10.0754 41.888C10.1935 41.8884 10.3115 41.8888 10.4296 41.889C10.7402 41.89 11.0507 41.8925 11.3612 41.8953C11.6782 41.8978 11.9951 41.899 12.3121 41.9002C12.9339 41.9028 13.5556 41.9077 14.1774 41.9125C14.1774 40.9718 14.1774 40.0311 14.1774 39.0619C10.1656 39.0619 6.1538 39.0619 2.02042 39.0619C2.02042 40.0026 2.02042 40.9433 2.02042 41.9125C2.38572 41.9086 2.75102 41.9047 3.12739 41.9007C3.41883 41.8986 3.71027 41.8968 4.00171 41.8952C4.30928 41.8934 4.61682 41.891 4.92437 41.8872C5.22065 41.8836 5.51689 41.8816 5.81319 41.8807C5.98113 41.8798 6.14906 41.8772 6.31699 41.8745C6.41936 41.8745 6.52172 41.8745 6.62719 41.8745C6.7173 41.8737 6.80742 41.873 6.90026 41.8722C7.19425 41.9228 7.29221 42.0121 7.47011 42.2479C7.51635 42.5716 7.53224 42.7506 7.33488 43.018C7.0694 43.2198 6.90531 43.2132 6.57361 43.2149C6.51794 43.2156 6.46227 43.2163 6.40492 43.2171C6.22131 43.219 6.03781 43.2184 5.8542 43.2176C5.72618 43.2181 5.59816 43.2186 5.47015 43.2192C5.2019 43.2201 4.93368 43.2197 4.66544 43.2185C4.3224 43.217 3.97949 43.219 3.63646 43.222C3.37205 43.2238 3.10767 43.2237 2.84325 43.223C2.71683 43.2229 2.59041 43.2235 2.464 43.2247C1.35252 43.2339 1.35252 43.2339 1.02198 42.9677C0.787367 42.6776 0.752021 42.5438 0.747962 42.1784C0.746348 42.052 0.746348 42.052 0.744701 41.9231C0.744082 41.8317 0.743463 41.7404 0.742825 41.6463C0.742148 41.5526 0.741471 41.4589 0.740774 41.3624C0.739613 41.1639 0.738714 40.9653 0.738055 40.7668C0.736612 40.4631 0.732933 40.1596 0.729233 39.856C0.728384 39.6632 0.72767 39.4705 0.727104 39.2777C0.725637 39.1869 0.724169 39.0961 0.722656 39.0025C0.724461 38.3766 0.724461 38.3766 0.906516 38.0476C1.22646 37.7814 1.52246 37.6992 1.93439 37.7014C2.0552 37.7014 2.0552 37.7014 2.17845 37.7015C2.26432 37.7023 2.35018 37.7032 2.43865 37.7041C2.57175 37.7044 2.57175 37.7044 2.70753 37.7048C2.99029 37.7057 3.27302 37.7078 3.55577 37.71C3.74774 37.7108 3.93971 37.7116 4.13169 37.7123C4.60172 37.7141 5.07174 37.717 5.54176 37.7205C5.54176 37.3608 5.54176 37.0011 5.54176 36.6305C5.40342 36.6028 5.26508 36.5752 5.12255 36.5467C4.89759 36.345 4.87221 36.2196 4.82911 35.9179C4.87103 35.6244 4.87103 35.6244 5.06491 35.4201C5.29024 35.2891 5.29024 35.2891 5.54176 35.2891C5.54176 34.6527 5.54176 34.0163 5.54176 33.3607C5.40342 33.333 5.26508 33.3054 5.12255 33.2769C4.89759 33.0752 4.87221 32.9498 4.82911 32.6481C4.87103 32.3546 4.87103 32.3546 5.06491 32.1502C5.29024 32.0192 5.29024 32.0192 5.54176 32.0192C5.54176 31.3829 5.54176 30.7465 5.54176 30.0909C5.40342 30.0632 5.26508 30.0356 5.12255 30.007C4.91975 29.8182 4.87571 29.6992 4.82911 29.4254C4.88518 29.0819 5.02133 28.962 5.29024 28.7494C5.37324 28.7494 5.45624 28.7494 5.54176 28.7494C5.54176 28.1131 5.54176 27.4767 5.54176 26.8211C5.40342 26.7934 5.26508 26.7657 5.12255 26.7372C4.97059 26.6429 4.97059 26.6429 4.87103 26.4857C4.82911 26.2027 4.82911 26.2027 4.87103 25.8988C5.06491 25.6525 5.06491 25.6525 5.29024 25.4796C5.37324 25.4796 5.45624 25.4796 5.54176 25.4796C5.54176 24.8433 5.54176 24.2069 5.54176 23.5513C5.40342 23.5236 5.26508 23.4959 5.12255 23.4674C4.97059 23.3731 4.97059 23.3731 4.87103 23.2159C4.82911 22.9329 4.82911 22.9329 4.87103 22.629C5.06491 22.3827 5.06491 22.3827 5.29024 22.2098C5.37324 22.2098 5.45624 22.2098 5.54176 22.2098C5.54176 21.5734 5.54176 20.9371 5.54176 20.2815C5.40342 20.2538 5.26508 20.2261 5.12255 20.1976C4.97059 20.1033 4.97059 20.1033 4.87103 19.9461C4.82911 19.6631 4.82911 19.6631 4.87103 19.3592C5.06491 19.1129 5.06491 19.1129 5.29024 18.94C5.37324 18.94 5.45624 18.94 5.54176 18.94C5.54176 16.0349 5.54176 13.1298 5.54176 10.1366C4.26905 10.1366 2.99634 10.1366 1.68506 10.1366C1.18201 9.80128 1.18201 9.80128 1.06149 9.61788C0.926257 8.94173 1.13152 8.51106 1.49943 7.95362C1.59705 7.80903 1.69602 7.66543 1.7951 7.52184C1.86068 7.42461 1.92613 7.32729 1.99144 7.22987C2.11213 7.05029 2.23367 6.87142 2.35589 6.69287C2.47286 6.52169 2.58733 6.34879 2.69985 6.17465C2.90455 5.87843 3.01642 5.80256 3.36188 5.69306C3.73639 5.66428 4.10795 5.66941 4.48326 5.67733C4.63581 5.67904 4.63581 5.67904 4.79145 5.68077C5.04159 5.68373 5.29165 5.68786 5.54176 5.69306C5.54 5.62204 5.53825 5.55101 5.53644 5.47784C5.5307 5.21253 5.52651 4.94724 5.52334 4.68188C5.52166 4.56738 5.51938 4.45289 5.51646 4.33841C5.51236 4.17319 5.51066 4.00791 5.50901 3.84265C5.50725 3.74342 5.5055 3.64419 5.50369 3.54196C5.55566 3.15935 5.7181 2.88174 6.02516 2.64398C6.30315 2.56525 6.57618 2.57341 6.86226 2.58044C6.94997 2.58158 6.94997 2.58158 7.03944 2.58274C7.18301 2.5847 7.32656 2.58771 7.47011 2.59092C7.46879 2.52875 7.46748 2.46657 7.46612 2.40251C7.4609 2.12122 7.45762 1.83994 7.45439 1.55863C7.45228 1.46076 7.45018 1.3629 7.448 1.26207C7.44719 1.16832 7.44638 1.07456 7.44555 0.977961C7.44423 0.891466 7.44291 0.804971 7.44156 0.715854C7.47011 0.494891 7.47011 0.494891 7.58611 0.341024C7.76452 0.212463 7.88055 0.209742 8.09892 0.211926ZM6.88322 3.93239C6.88322 4.51341 6.88322 5.09443 6.88322 5.69306C7.68558 5.69306 8.48795 5.69306 9.31462 5.69306C9.31462 5.11203 9.31462 4.53101 9.31462 3.93239C8.51226 3.93239 7.7099 3.93239 6.88322 3.93239ZM6.88322 10.1366C6.88322 13.0417 6.88322 15.9469 6.88322 18.94C7.68558 18.94 8.48795 18.94 9.31462 18.94C9.31462 16.0349 9.31462 13.1298 9.31462 10.1366C8.51226 10.1366 7.7099 10.1366 6.88322 10.1366ZM10.6561 10.1366C10.6561 12.018 10.6561 13.8994 10.6561 15.8379C12.7865 15.8379 14.9169 15.8379 17.1119 15.8379C17.0541 15.549 17.0059 15.3377 16.8983 15.0744C16.8719 15.0094 16.8456 14.9443 16.8184 14.8773C16.7898 14.8077 16.7611 14.7381 16.7316 14.6664C16.7017 14.5928 16.6718 14.5192 16.6409 14.4434C16.545 14.2076 16.4485 13.9721 16.3521 13.7366C16.2582 13.5065 16.1644 13.2763 16.0706 13.0461C16.0083 12.8933 15.946 12.7405 15.8835 12.5878C15.7237 12.1963 15.5653 11.8043 15.4092 11.4113C15.3784 11.3337 15.3475 11.256 15.3157 11.176C15.2569 11.0276 15.1982 10.8791 15.1397 10.7305C15.1136 10.6646 15.0875 10.5987 15.0606 10.5308C15.0377 10.4727 15.0148 10.4146 14.9912 10.3547C14.9413 10.2197 14.9413 10.2197 14.8482 10.1366C14.7169 10.1288 14.5853 10.1268 14.4538 10.1271C14.3687 10.1271 14.2836 10.1271 14.1959 10.1272C14.0608 10.1278 14.0608 10.1278 13.9229 10.1285C13.8406 10.1285 13.7583 10.1286 13.6735 10.1287C13.3646 10.1292 13.0557 10.1303 12.7469 10.1314C11.7119 10.134 11.7119 10.134 10.6561 10.1366ZM6.88322 20.2815C6.88322 20.9178 6.88322 21.5542 6.88322 22.2098C7.68558 22.2098 8.48795 22.2098 9.31462 22.2098C9.31462 21.5734 9.31462 20.9371 9.31462 20.2815C8.51226 20.2815 7.7099 20.2815 6.88322 20.2815ZM6.88322 23.5513C6.88322 24.1876 6.88322 24.824 6.88322 25.4796C7.68558 25.4796 8.48795 25.4796 9.31462 25.4796C9.31462 24.8433 9.31462 24.2069 9.31462 23.5513C8.51226 23.5513 7.7099 23.5513 6.88322 23.5513ZM6.88322 26.8211C6.88322 27.4574 6.88322 28.0938 6.88322 28.7494C7.68558 28.7494 8.48795 28.7494 9.31462 28.7494C9.31462 28.1131 9.31462 27.4767 9.31462 26.8211C8.51226 26.8211 7.7099 26.8211 6.88322 26.8211ZM6.88322 30.0909C6.88322 30.7272 6.88322 31.3636 6.88322 32.0192C7.68558 32.0192 8.48795 32.0192 9.31462 32.0192C9.31462 31.3829 9.31462 30.7465 9.31462 30.0909C8.51226 30.0909 7.7099 30.0909 6.88322 30.0909ZM6.88322 33.3607C6.88322 33.9971 6.88322 34.6334 6.88322 35.2891C7.68558 35.2891 8.48795 35.2891 9.31462 35.2891C9.31462 34.6527 9.31462 34.0163 9.31462 33.3607C8.51226 33.3607 7.7099 33.3607 6.88322 33.3607ZM6.88322 36.6305C6.88322 36.9902 6.88322 37.3499 6.88322 37.7205C7.68558 37.7205 8.48795 37.7205 9.31462 37.7205C9.31462 37.3608 9.31462 37.0011 9.31462 36.6305C8.51226 36.6305 7.7099 36.6305 6.88322 36.6305Z" fill="#4F4F4F"/>
<path d="M32.1695 24.2216C32.2569 24.2562 32.3444 24.2909 32.4345 24.3266C32.7227 24.4409 33.0106 24.5562 33.2984 24.6715C33.4991 24.7514 33.6999 24.8314 33.9007 24.9112C34.3212 25.0786 34.7415 25.2465 35.1616 25.4147C35.6462 25.6086 36.131 25.8018 36.616 25.9946C37.084 26.1806 37.5518 26.3672 38.0195 26.5539C38.2179 26.6331 38.4163 26.7122 38.6148 26.7911C38.8925 26.9016 39.1699 27.0127 39.4473 27.124C39.5289 27.1563 39.6106 27.1887 39.6947 27.2221C40.8537 27.6889 40.8537 27.6889 41.0065 27.9947C41.0145 28.1774 41.0168 28.3604 41.0166 28.5432C41.0167 28.6287 41.0167 28.6287 41.0168 28.7159C41.017 28.9077 41.0165 29.0995 41.0161 29.2913C41.016 29.4285 41.0161 29.5656 41.0161 29.7028C41.0161 30.0759 41.0156 30.449 41.0151 30.8221C41.0145 31.2117 41.0145 31.6013 41.0144 31.991C41.0141 32.7291 41.0134 33.4673 41.0126 34.2055C41.0117 35.0457 41.0112 35.8859 41.0108 36.7261C41.0099 38.4549 41.0084 40.1836 41.0065 41.9124C41.0705 41.9108 41.1345 41.9093 41.2004 41.9078C41.2839 41.9066 41.3675 41.9054 41.4536 41.9042C41.5366 41.9027 41.6196 41.9011 41.7051 41.8996C41.9288 41.9124 41.9288 41.9124 42.1541 42.0434C42.3078 42.3287 42.3098 42.5153 42.2642 42.8346C42.1488 43.018 42.1488 43.018 41.9288 43.17C41.6364 43.2208 41.3465 43.2152 41.0504 43.2126C40.96 43.2131 40.8696 43.2136 40.7764 43.2142C40.4723 43.2155 40.1683 43.2144 39.8642 43.2134C39.6466 43.2138 39.4291 43.2144 39.2115 43.2152C38.6813 43.2167 38.151 43.2163 37.6208 43.2154C37.19 43.2146 36.7591 43.2145 36.3282 43.2149C36.2363 43.2149 36.2363 43.2149 36.1425 43.215C36.018 43.2151 35.8935 43.2152 35.769 43.2153C34.6011 43.2163 33.4333 43.2152 32.2655 43.2134C31.2631 43.2119 30.2607 43.2122 29.2583 43.2137C28.0947 43.2155 26.931 43.2162 25.7674 43.2152C25.6434 43.2151 25.5193 43.215 25.3953 43.2149C25.3342 43.2148 25.2732 43.2148 25.2103 43.2147C24.7799 43.2144 24.3495 43.2149 23.919 43.2157C23.3399 43.2167 22.7607 43.216 22.1816 43.214C21.9687 43.2136 21.7557 43.2137 21.5428 43.2145C21.2528 43.2154 20.963 43.2142 20.6731 43.2126C20.5881 43.2133 20.5032 43.2141 20.4157 43.2148C19.8504 43.2085 19.8504 43.2085 19.5747 43.018C19.4041 42.7468 19.4146 42.561 19.4593 42.2477C19.5694 42.0434 19.5694 42.0434 19.7947 41.9124C20.0184 41.8996 20.0184 41.8996 20.2699 41.9042C20.3952 41.9059 20.3952 41.9059 20.5231 41.9078C20.6191 41.91 20.6191 41.91 20.7169 41.9124C20.7162 41.8102 20.7155 41.708 20.7147 41.6027C20.7079 40.6404 20.7029 39.6782 20.6996 38.7159C20.6978 38.2211 20.6954 37.7264 20.6916 37.2317C20.688 36.7544 20.686 36.2771 20.6851 35.7998C20.6845 35.6175 20.6833 35.4353 20.6815 35.253C20.6791 34.9981 20.6787 34.7432 20.6789 34.4882C20.6777 34.4126 20.6765 34.337 20.6752 34.2591C20.6786 33.7474 20.6786 33.7474 20.8765 33.4817C21.0653 33.3516 21.1605 33.3129 21.3877 33.3134C21.443 33.3115 21.4983 33.3097 21.5554 33.3078C21.8282 33.3936 21.9084 33.5391 22.0584 33.7797C22.106 34.0447 22.1008 34.3053 22.0965 34.5739C22.0965 34.6533 22.0966 34.7327 22.0966 34.8144C22.0964 35.0762 22.0938 35.3379 22.0912 35.5997C22.0905 35.7814 22.09 35.9632 22.0897 36.1449C22.0884 36.6228 22.0851 37.1006 22.0814 37.5785C22.0774 38.1521 22.0759 38.7257 22.0739 39.2993C22.0706 40.1704 22.0642 41.0413 22.0584 41.9124C23.9951 41.9124 25.9319 41.9124 27.9273 41.9124C27.9141 40.6733 27.9141 40.6733 27.8971 39.4343C27.8961 39.2778 27.8952 39.1213 27.8945 38.9648C27.8928 38.885 27.8911 38.8051 27.8893 38.7229C27.8891 38.2072 27.9506 37.8065 28.2627 37.3849C28.6924 36.9688 29.1456 36.9994 29.7112 37.0021C29.8022 37.0016 29.8931 37.001 29.9868 37.0005C30.1787 36.9999 30.3706 37.0002 30.5625 37.0012C30.8553 37.0024 31.1478 36.9995 31.4406 36.9963C31.6275 36.9963 31.8143 36.9964 32.0011 36.9968C32.1318 36.9952 32.1318 36.9952 32.265 36.9935C32.729 36.9994 33.0701 37.0332 33.431 37.3418C33.858 37.8188 33.8305 38.351 33.8208 38.9566C33.8205 39.0319 33.8202 39.1071 33.82 39.1846C33.8187 39.4633 33.8152 39.742 33.8119 40.0207C33.8067 40.6449 33.8015 41.2692 33.7962 41.9124C35.7329 41.9124 37.6697 41.9124 39.6651 41.9124C39.6374 37.5685 39.6098 33.2247 39.5812 28.7493C38.1737 28.1769 36.7661 27.6045 35.3158 27.0148C34.8726 26.833 34.4294 26.6513 33.9728 26.464C33.573 26.3029 33.573 26.3029 33.1729 26.1425C32.9955 26.071 32.8184 25.9985 32.6417 25.9251C32.3732 25.814 32.1036 25.7061 31.8335 25.5988C31.7556 25.5657 31.6777 25.5326 31.5975 25.4984C31.0199 25.2748 30.6716 25.3286 30.1072 25.5633C30.0076 25.6005 30.0076 25.6005 29.9061 25.6385C29.6963 25.7174 29.4886 25.8003 29.2808 25.8843C29.203 25.9154 29.1252 25.9465 29.0451 25.9786C28.7909 26.0803 28.5369 26.1825 28.283 26.2848C28.1056 26.3559 27.9282 26.427 27.7508 26.498C27.2862 26.6842 26.8218 26.8708 26.3574 27.0575C25.8825 27.2483 25.4076 27.4386 24.9326 27.629C24.0023 28.002 23.0722 28.3755 22.1422 28.7493C22.1406 28.8389 22.1389 28.9286 22.1372 29.021C22.1308 29.3542 22.1234 29.6873 22.1156 30.0204C22.1124 30.1645 22.1095 30.3086 22.1069 30.4527C22.103 30.66 22.0982 30.8673 22.0931 31.0746C22.0917 31.171 22.0917 31.171 22.0902 31.2694C22.0743 31.8461 22.0743 31.8461 21.8907 32.1029C21.663 32.2322 21.5184 32.2729 21.2567 32.2601C20.9847 32.1625 20.8888 32.088 20.7169 31.8514C20.6658 31.5636 20.67 31.2785 20.6724 30.9868C20.6721 30.9024 20.6718 30.8181 20.6714 30.7312C20.6712 30.5531 20.6718 30.3749 20.6732 30.1968C20.675 29.924 20.6732 29.6515 20.6711 29.3787C20.6713 29.2056 20.6717 29.0324 20.6724 28.8593C20.6717 28.7777 20.671 28.6962 20.6703 28.6121C20.6714 28.536 20.6725 28.4599 20.6735 28.3815C20.6738 28.3147 20.6741 28.248 20.6744 28.1792C20.7344 27.919 20.8456 27.8255 21.0523 27.6593C21.2805 27.5432 21.2805 27.5432 21.5462 27.4374C21.6465 27.3969 21.7469 27.3565 21.8504 27.3148C21.9606 27.2713 22.0709 27.2279 22.1812 27.1844C22.2965 27.1383 22.4118 27.0921 22.5271 27.0458C22.8359 26.9221 23.1451 26.7994 23.4544 26.6769C23.7739 26.5502 24.093 26.4224 24.4122 26.2948C24.9233 26.0905 25.4347 25.8868 25.9462 25.6835C26.5888 25.428 27.2308 25.1711 27.8726 24.9135C29.1681 24.3937 29.1681 24.3937 29.7901 24.1452C29.8535 24.1198 29.9169 24.0944 29.9823 24.0683C30.8532 23.7206 31.325 23.8815 32.1695 24.2216ZM29.2688 38.391C29.2688 39.5531 29.2688 40.7151 29.2688 41.9124C30.3201 41.9124 31.3715 41.9124 32.4547 41.9124C32.4547 40.7503 32.4547 39.5883 32.4547 38.391C31.4034 38.391 30.352 38.391 29.2688 38.391Z" fill="#4F4F4F"/>
<path d="M35.4678 30.2219C35.5715 30.2202 35.6752 30.2185 35.7821 30.2168C36.4697 30.2172 36.9885 30.2686 37.4902 30.7645C37.5474 30.8487 37.5474 30.8487 37.6058 30.9345C37.6455 30.9908 37.6851 31.0471 37.726 31.1052C37.8811 31.3664 37.9157 31.5858 37.9207 31.8831C37.922 31.957 37.9234 32.0309 37.9247 32.107C37.9285 32.4445 37.9319 32.782 37.9338 33.1195C37.9352 33.2973 37.9375 33.4751 37.9407 33.653C37.9453 33.9098 37.9471 34.1666 37.9484 34.4234C37.9503 34.5026 37.9522 34.5817 37.9541 34.6633C37.9529 35.0365 37.9427 35.2924 37.7026 35.5894C37.4318 35.842 37.3168 35.8862 36.9589 35.8908C36.8847 35.8918 36.8105 35.8929 36.7341 35.894C36.6538 35.8946 36.5734 35.8953 36.4906 35.8959C36.3669 35.8969 36.3669 35.8969 36.2406 35.898C36.0658 35.8991 35.8909 35.9 35.716 35.9007C35.4488 35.9021 35.1817 35.9058 34.9145 35.9095C34.7447 35.9103 34.5749 35.9111 34.4051 35.9116C34.2853 35.9138 34.2853 35.9138 34.1632 35.9161C33.8167 35.9149 33.5998 35.9061 33.2918 35.7375C32.9258 35.3041 32.932 34.8368 32.9326 34.2967C32.9323 34.2264 32.9319 34.1561 32.9315 34.0837C32.9311 33.9356 32.931 33.7875 32.9314 33.6394C32.9316 33.4144 32.9297 33.1894 32.9276 32.9644C32.9274 32.8199 32.9273 32.6753 32.9274 32.5308C32.9266 32.4643 32.9258 32.3978 32.925 32.3293C32.9297 31.7578 33.0552 31.2215 33.4399 30.7773C33.4775 30.7318 33.5152 30.6863 33.5539 30.6394C34.1283 30.1706 34.7581 30.2178 35.4678 30.2219ZM34.4016 31.7327C34.2615 32.0104 34.2709 32.2264 34.2747 32.5367C34.2751 32.5939 34.2755 32.6511 34.2758 32.7101C34.2772 32.892 34.2804 33.0739 34.2836 33.2559C34.2849 33.3796 34.286 33.5033 34.287 33.6269C34.2896 33.9295 34.2945 34.2319 34.2993 34.5345C35.0463 34.5345 35.7934 34.5345 36.563 34.5345C36.5688 34.1569 36.5738 33.7796 36.5768 33.402C36.5781 33.2736 36.5798 33.1452 36.582 33.0168C36.5851 32.8322 36.5865 32.6476 36.5876 32.463C36.5889 32.4056 36.5902 32.3482 36.5915 32.2891C36.5916 32.0558 36.5872 31.8898 36.4608 31.6898C36.1523 31.5042 35.7808 31.5608 35.4312 31.5633C35.3504 31.5617 35.2697 31.56 35.1865 31.5583C35.109 31.5583 35.0315 31.5584 34.9517 31.5584C34.8809 31.5583 34.81 31.5581 34.737 31.558C34.5421 31.5862 34.5421 31.5862 34.4016 31.7327Z" fill="#4F4F4F"/>
<path d="M26.2242 30.2322C26.3294 30.2298 26.4346 30.2274 26.543 30.2249C27.2939 30.2197 27.7716 30.285 28.3307 30.8191C28.6999 31.3783 28.8043 31.9403 28.799 32.6014C28.7992 32.6697 28.7995 32.7379 28.7997 32.8083C28.7999 32.9513 28.7994 33.0943 28.7984 33.2373C28.797 33.455 28.7984 33.6725 28.8 33.8902C28.7998 34.03 28.7995 34.1698 28.799 34.3097C28.7998 34.4061 28.7998 34.4061 28.8005 34.5045C28.7949 34.9374 28.7235 35.2425 28.5141 35.6243C28.2771 35.8409 28.1216 35.9075 27.8023 35.911C27.7284 35.9124 27.6545 35.9137 27.5784 35.9151C27.4596 35.9151 27.4596 35.9151 27.3383 35.9151C27.2563 35.9158 27.1742 35.9164 27.0896 35.9171C26.9161 35.918 26.7426 35.9182 26.5691 35.9178C26.3043 35.9177 26.0396 35.9212 25.7748 35.9249C25.606 35.9254 25.4373 35.9256 25.2685 35.9256C25.1896 35.927 25.1107 35.9283 25.0295 35.9298C24.6573 35.9259 24.4016 35.9128 24.1056 35.6736C23.854 35.4045 23.8087 35.2902 23.8041 34.9342C23.803 34.8608 23.802 34.7875 23.8009 34.7119C23.8002 34.6323 23.7996 34.5528 23.799 34.4708C23.7983 34.3889 23.7976 34.307 23.7969 34.2226C23.7958 34.0488 23.7949 33.875 23.7942 33.7012C23.7928 33.4367 23.7891 33.1724 23.7854 32.908C23.7845 32.739 23.7838 32.57 23.7833 32.401C23.7818 32.3224 23.7803 32.2439 23.7788 32.163C23.7807 31.5717 23.9007 31.1019 24.325 30.6727C24.381 30.6346 24.4371 30.5964 24.4949 30.5571C24.5512 30.5175 24.6075 30.4778 24.6656 30.4369C25.135 30.1583 25.6962 30.2362 26.2242 30.2322ZM25.2627 31.6897C25.1071 31.9357 25.1295 32.1814 25.1359 32.4629C25.1362 32.5221 25.1366 32.5813 25.1369 32.6423C25.1383 32.8311 25.1415 33.0198 25.1447 33.2086C25.146 33.3367 25.1471 33.4648 25.1481 33.5929C25.1507 33.9068 25.1556 34.2205 25.1604 34.5344C25.9074 34.5344 26.6545 34.5344 27.4241 34.5344C27.4299 34.1703 27.4349 33.8064 27.438 33.4423C27.4392 33.3186 27.4409 33.1948 27.4431 33.071C27.4462 32.8929 27.4476 32.7148 27.4487 32.5366C27.45 32.4294 27.4513 32.3223 27.4527 32.2119C27.4222 31.9168 27.3934 31.7962 27.1726 31.5999C26.9833 31.5499 26.9833 31.5499 26.7717 31.5583C26.6943 31.5583 26.6168 31.5582 26.5369 31.5581C26.4158 31.5607 26.4158 31.5607 26.2923 31.5632C26.2115 31.5626 26.1308 31.562 26.0476 31.5614C25.6373 31.5508 25.6373 31.5508 25.2627 31.6897Z" fill="#4F4F4F"/>
<path d="M30.8617 27.7013C30.9856 27.6993 30.9856 27.6993 31.112 27.6973C31.4829 27.6993 31.7209 27.7075 32.048 27.8925C32.2105 28.0873 32.2605 28.1641 32.2556 28.4139C32.2567 28.4692 32.2578 28.5246 32.2589 28.5816C32.1656 28.8625 32.0412 28.9391 31.784 29.0846C31.4756 29.1335 31.1733 29.1315 30.8617 29.1266C30.7379 29.1285 30.7379 29.1285 30.6115 29.1305C30.2406 29.1285 30.0026 29.1203 29.6755 28.9353C29.513 28.7405 29.463 28.6638 29.4679 28.4139C29.4668 28.3586 29.4657 28.3032 29.4646 28.2462C29.6728 27.6191 30.3195 27.6927 30.8617 27.7013Z" fill="#4F4F4F"/>
</svg>
